# xmcd CD database file
#
# Track frame offsets:
#	150
#	16615
#	31452
#	46212
#	61407
#	78030
#	92772
#	106755
#	119472
#	134985
#	151257
#	167340
#	182990
#	196412
#	212222
#	225700
#	241437
#	253082
#
# Disc length: 3588 seconds
#
# Revision: 0
# Processed by: cddbd v1.4PL0 Copyright (c) Steve Scherf et al.
# Submitted via: Feurio! 1.66 - http://www.feurio.com
#
DISCID=ee0e0212
DTITLE=Various Artist - Uwe Hübner Präsentiert Die Unterhaltungshitparade - Folge 10
DYEAR=1900
DGENRE=
TTITLE0=Die Paldauer - Weil Du Mich Unheimlich Glücklich Machst
TTITLE1=Leonard - Ein Kleines Lied
TTITLE2=Vergissmeinnicht - Herzschlag Für Herzschlag
TTITLE3=Linda Feller - Weil Du Mich Liebst
TTITLE4=Calimeros - Adieu Mon Amour
TTITLE5=Die Zillertaler - A Jodler Bleibt Für Die Ewigkeit
TTITLE6=Kastelruther Spatzen - Monte D'amore
TTITLE7=Duo Herzklang - Good Morning, Bonjour
TTITLE8=Markus Salin - Du Kannst Alles Haben
TTITLE9=Brunner Und Brunner - Nur Die Liebe Und Der Rock'n Roll
TTITLE10=Andy Borg - Ich Freu Mich Auf Dich
TTITLE11=Sommerwind - Ich Hab' Noch Jede Menge Träume
TTITLE12=Eva-maria - Wenn Mein Herz Dich Verliert
TTITLE13=Carriere - Deine Liebe Lebt Noch Immer
TTITLE14=Nockalm Quintett - Gina, Das Ist Die Liebe
TTITLE15=Original Alpenland Quintett - Was Die Leit Sag'n
TTITLE16=Alpentrio Tirol - Tirol Is Lei Oans (Neue Version)
TTITLE17=Beny Rehmann - Herbstblüten (Weinlese Romanze)
EXTD=
EXTT0=
EXTT1=
EXTT2=
EXTT3=
EXTT4=
EXTT5=
EXTT6=
EXTT7=
EXTT8=
EXTT9=
EXTT10=
EXTT11=
EXTT12=
EXTT13=
EXTT14=
EXTT15=
EXTT16=
EXTT17=
PLAYORDER=
